<svg id="Layer_1" data-name="Layer 1" xmlns="http://www.w3.org/2000/svg" viewBox="0 0 400 200"><defs><style>.cls-1{fill:#231f20;}</style></defs><title>Artboard 1</title><path class="cls-1" d="M12.82,40.63V70.78H20.4V85.22H12.82v56.5c0,13,1,20.4,4,20.4a4.24,4.24,0,0,0,3.06-1.26V175.1c-1.52,1.89-3.12,2.74-4.72,2.53-2.14.49-4.23-2.41-5.72-7.94a122.28,122.28,0,0,1-2.06-27.26V85.22H2.78V70.78H7.3V46.23Z"/><path class="cls-1" d="M46.93,175.21l-.45-14.71h0c-2.34,11.17-6,17.62-9.92,17.33-5.09,1.34-9.52-12.42-9.89-30.74q0-1.45,0-2.91c0-28.21,7-43.72,19.55-43.52V98.24c.48-13.24-2.13-25.36-5.81-27.07a2,2,0,0,0-1.87.07c-3,0-5.92,3-8.46,8.66L28.72,65.8c3.22-7,6.93-10.65,10.7-10.48,9.92,0,12.38,24.38,12.38,47.75V146.8c0,9.38.15,18.75.56,28ZM46,114.76c-6.44,0-13.78,3.63-13.78,26.39C32,151.47,34.17,160.49,37,161.31a1.48,1.48,0,0,0,.82,0c3.57.26,6.76-7.94,7.84-20.15.21-2.21.32-4.52.34-6.85Z"/><path class="cls-1" d="M55.23,21.86h5.32V175.65H55.23Z"/><path class="cls-1" d="M69.44,21.86h5.32V175.65H69.44Z"/></svg>